<?xml version="1.0" encoding="UTF-8"?> <svg xmlns="http://www.w3.org/2000/svg" width="64" height="64"><rect id="backgroundrect" width="100%" height="100%" x="0" y="0" fill="none" stroke="none"></rect><g class="currentLayer" style=""><title>Layer 1</title><g id="svg_1" class="selected" fill-opacity="1" fill="#033131"><path d="M60.53,23.94l-28-17.5a1,1,0,0,0-1.06,0l-28,17.5a1,1,0,0,0-.47.84V29.5a1,1,0,0,0,1.53.85L32,13.18,59.47,30.35A1,1,0,0,0,61,29.5V24.78A1,1,0,0,0,60.53,23.94Z" id="svg_2" fill="#033131"></path><path d="M57,52V31.16L32,15.54,7,31.16V52a1,1,0,0,0,1,1h6V32a1,1,0,0,1,1-1H49a1,1,0,0,1,1,1V53h6A1,1,0,0,0,57,52ZM38.5,26h-13V24h13Z" id="svg_3" fill="#033131"></path><rect width="9" height="6" x="39" y="37" id="svg_4" fill="#033131"></rect><path d="M37,53V45H28v7a1,1,0,0,0,1,1Z" id="svg_5" fill="#033131"></path><rect width="9" height="8" x="39" y="45" id="svg_6" fill="#033131"></rect></g></g></svg> 