<?xml version="1.0" encoding="UTF-8"?> <svg xmlns="http://www.w3.org/2000/svg" width="66" height="66"><rect id="backgroundrect" width="100%" height="100%" x="0" y="0" fill="none" stroke="none"></rect><g class="currentLayer" style=""><title>Layer 1</title><path d="M64 56.6H2c-.6 0-1 .4-1 1v4.6c0 .6.4 1 1 1h62c.6 0 1-.4 1-1v-4.6c0-.5-.4-1-1-1zM28.5 30c-.5 0-1 .5-1 1v23.6H64c.3 0 .7.1 1 .2V21.5c0-.4-.2-.7-.5-.9-.3-.2-.7-.1-1 .1L49.9 30h-.8v-8.5c0-.4-.2-.7-.5-.9-.3-.2-.7-.1-1 .1L34.1 30h-5.6zm21.2 5c0-.6.5-1.1 1.1-1.1h5.1c.6 0 1.1.5 1.1 1.1v1.9c0 .6-.5 1.1-1.1 1.1h-5.1c-.6 0-1.1-.5-1.1-1.1V35zm0 10c0-.6.5-1.1 1.1-1.1h5.1c.6 0 1.1.5 1.1 1.1v1.9c0 .6-.5 1.1-1.1 1.1h-5.1c-.6 0-1.1-.5-1.1-1.1V45zM35.5 35c0-.6.5-1.1 1.1-1.1h5.1c.6 0 1.1.5 1.1 1.1v1.9c0 .6-.5 1.1-1.1 1.1h-5.1c-.6 0-1.1-.5-1.1-1.1V35zm0 10c0-.6.5-1.1 1.1-1.1h5.1c.6 0 1.1.5 1.1 1.1v1.9c0 .6-.5 1.1-1.1 1.1h-5.1c-.6 0-1.1-.5-1.1-1.1V45zM20 10.3c.5 0 1-.4 1-1 0-2.5 2-4.5 4.5-4.5 4.1 0 7.2.3 9 1 4.9 1.8 9 .6 10.8-1.3.4-.4.4-1 0-1.4-.4-.4-1-.4-1.4 0-1.7 1.8-5.6 1.9-8.7.8-2-.8-5.3-1.1-9.7-1.1-3.6 0-6.5 3-6.5 6.5 0 .6.4 1 1 1zm-9.2 7.9H21c2.1 0 3.8-1.7 3.8-3.8 0-2.1-1.7-3.8-3.8-3.8H10.8c-2.1 0-3.8 1.7-3.8 3.8 0 2.1 1.7 3.8 3.8 3.8zM7.7 45.4h16.5c-.5-2.8-1-5.9-1.3-9.2H9c-.3 3.3-.8 6.4-1.3 9.2zm1.5-11.2h13.5c-.2-2.3-.4-4.7-.5-7.1H9.7c-.2 2.4-.3 4.8-.5 7.1zm.7-14.1c0 1.7-.1 3.4-.1 5h12.4c-.1-1.7-.1-3.4-.1-5-1 .2-11.6.1-12.2 0zm14.7 27.3H7.3c-.7 2.9-1.5 5.4-2.5 7.2h22.3c-1-1.8-1.8-4.2-2.5-7.2z" id="svg_1" class="" fill-opacity="1" fill="#033131"></path></g></svg> 