<?xml version="1.0" encoding="UTF-8"?> <svg xmlns="http://www.w3.org/2000/svg" width="1024" height="1024"><rect id="backgroundrect" width="100%" height="100%" x="0" y="0" fill="none" stroke="none"></rect><g class="currentLayer" style=""><title>Layer 1</title><path d="M903 803.3V427.1c-.4 0-.8.1-1.3.1-.4 0-.8.1-1.2.2-1.3.2-2.5.3-3.8.5-.4.1-.8 0-1.2.1H892.9c-1.8 0-3.7-.2-5.5-.3H886.8c-.2 0-.4-.1-.6-.1-1.1 0-2.2-.2-3.3-.3-18.8-1.4-37.2-7.4-53.1-17.9l-2.7-1.8c-.5-.4-1-.7-1.5-1.1-.2-.1-.4-.3-.6-.4-.4-.3-.9-.6-1.3-.9l-1.5-1.2c-.1-.1-.2-.1-.3-.2-.1-.1-.2-.1-.2-.2-.1-.1-.3-.2-.4-.3l-1.2-.9c-.1 0-.1-.1-.2-.2-.4-.3-.7-.6-1.1-.9-.1-.1-.3-.2-.4-.3-.4-.3-.8-.7-1.2-1-.1 0-.1-.1-.2-.2-.2-.1-.3-.3-.5-.4-.5-.4-.9-.8-1.4-1.2-.3-.2-.5-.5-.8-.8-.7-.7-1.5-1.4-2.2-2.1l-2.3-2.3c-.7-.7-1.3-1.4-2-2.1-2.6-2.8-5-5.7-7.3-8.8-1.1-1.5-2.3-3-3.3-4.6-.1.1-.1.2-.2.3-22 31.6-59.8 51.8-99.3 50-27.7-1.2-54-12.1-74.4-30.9-6.3-5.8-11.5-12.3-16.5-19.3-.6.8-1.2 1.7-1.8 2.5l-1.8 2.4c-.4.5-.8 1.1-1.3 1.6-.9 1.1-1.8 2.2-2.8 3.3-.4.5-.9 1-1.4 1.5l-.6.6c-.4.5-.9 1-1.4 1.5-.2.3-.5.5-.7.8-.5.5-.9 1-1.4 1.4l-.8.8c-.5.5-.9.9-1.4 1.3-.3.3-.6.6-.9.8-.4.4-.8.8-1.2 1.1-.5.5-1 .9-1.5 1.3-.2.2-.4.4-.6.5l-1.8 1.5c-.2.2-.4.3-.6.5-.5.4-1 .8-1.6 1.2-.3.3-.7.5-1 .8-.8.6-1.5 1.2-2.3 1.7-.4.3-.9.7-1.3 1-.4.3-.8.6-1.3.9-2.4 1.7-4.9 3.3-7.4 4.8-.8.5-1.7 1-2.5 1.4-.8.5-1.7.9-2.5 1.4-.8.5-1.7.9-2.6 1.3-.7.3-1.4.7-2.1 1-.3.1-.5.2-.8.3l-2.1.9c-.3.1-.5.2-.8.3-.8.3-1.5.6-2.3 1-.9.4-1.8.7-2.7 1-.8.3-1.6.6-2.5.9-.1 0-.3.1-.4.2-.9.3-1.7.6-2.6.8-.9.3-1.8.6-2.8.8-1.7.5-3.4.9-5 1.3-.3.1-.5.1-.8.2-.9.2-1.7.4-2.6.6-.9.2-1.8.4-2.6.5-.2 0-.3.1-.5.1-.9.2-1.7.3-2.6.4-2.1.3-4.1.6-6.2.8-9.6 1-19.4.8-29.4-.6-31.7-4.5-59.4-23.1-77.1-49-25.6 36.7-68.7 55.3-113 49-31.7-4.5-59.5-23.1-77.1-49l-1.5 2.1c-.2.3-.5.7-.7 1-1.5 2.1-3.1 4.1-4.8 6.1-.4.5-.8 1-1.3 1.5-1.3 1.5-2.6 2.9-3.9 4.3-.4.5-.9.9-1.4 1.4l-1.4 1.4c-.5.5-.9.9-1.4 1.3-.5.5-1 .9-1.4 1.3s-1 .9-1.5 1.3-1 .8-1.5 1.3l-1.5 1.2c-1.9 1.6-3.9 3.1-5.9 4.5l-1.2.9c-1.6 1.1-3.2 2.2-4.9 3.2-.4.3-.8.5-1.2.8l-1.5.9c-1 .6-1.9 1.1-2.9 1.7-.6.3-1.1.6-1.7.9-1.1.6-2.3 1.2-3.5 1.8-.6.3-1.2.6-1.8.8-.7.3-1.4.7-2.1 1-1.4.6-2.8 1.3-4.3 1.8-1.4.6-2.9 1.1-4.4 1.6-9.2 3.3-18.7 5.7-28.3 5.7-3.3 1-6.7 0-10 0h-10v422.5c.3 25.9 20.6 47.4 46.7 48.4 9.1.3 18.3.1 27.4.1H251V545.4c0-5.4 4.6-10.4 10-10.4h198c3.1 0 5.5 1.4 7.1 3.2.4.4.8.9 1.2 1.4.1.2.2.3.3.5.2.3.3.6.5.9.4.8.6 1.7.8 2.7 0 .2 0 .4.1.6v1.8c.6 16.7 0 33.5 0 50.3V898h379.7c3.7 0 7.4.1 11-.4 24.7-2.9 43-23.4 43.2-48.3.3-15.3.1-30.6.1-46zm-120-63.4c0 3.1-1.2 5.5-3 7.1-1.6 1.8-4 3-7.1 3H578.5c-5.4 0-10.5-4.7-10.5-10.1V545.4c0-5.4 5.1-10.4 10.5-10.4H773c5.4 0 10 5 10 10.4v194.5zM207 126v161.7c0 6.3-.1 12.5-.1 18.8v.4c0 2.1 0 4.1-.1 6.1v.5c0 2.1-.1 4.2-.3 6.3-.1.9-.1 1.9-.2 2.8 0 .5-.3 1.4-.4 1.8.1-.2.2-.5.4-1 .3-.8.4-1.1.5-1.2 0 .1-.7 2.1-.8 2.6-.2.9-.4 1.8-.5 2.7-.5 2.2-1 4.4-1.6 6.5-.5 1.7-1.1 3.4-1.6 5.1-.3.8-.6 1.7-.9 2.5-1.3 3.6.5-1 .5-1.1.2 1.1-2.1 4.5-2.5 5.4-1 2-2.1 3.9-3.2 5.8-.9 1.5-1.8 3-2.8 4.4-.6.9-1.3 1.8-1.9 2.7-.5.8-.6 1-.5.9-.8.9-1.8 1.8-2.1 2.1-1.5 1.6-3 3.2-4.5 4.7-1.3 1.2-2.5 2.4-3.8 3.6-.7.6-1.3 1.1-2 1.7-.5.4-2 1.1-2.1 1.3 0 0 .3-.1 1.1-.4.2-.1.4-.2.5-.2-.4.2-.8.4-1.1.6-.7.5-1.4 1-2.2 1.5-1.8 1.2-3.7 2.4-5.6 3.5-1.7 1-3.5 1.9-5.2 2.8-.8.4-1.6.7-2.4 1.1-.7.4-1 .6-.9.6-1.1.4-2.4.6-2.9.8-2.1.7-4.3 1.4-6.4 2-1.7.5-3.5.9-5.3 1.2l-3.3.6c-.9.1-3.7.2-.7.1 3.5 0-1 .1-1.5.1-.9.1-1.8.2-2.8.2h-.5c-1.1-.2-2.2-.4-3.3-.7-2.4-.6-4.9-.3-7 .7-.8 0-1.6-.1-2.5-.2-.7 0-1.3-.1-2-.2.1 0 .1-.2.2-.2 0 0-.1-.2-.2-.2l-.1.2s0 .1-.1.1h-.4c-.4 0-.8-.1-1.1-.1-4.6-.9-9.2-1.9-13.7-3.4-1.1-.3-2.1-.7-3.2-1.1.1 0 .2.1.3.1-.2-.1-1.5-.5-1.9-.7-1-.5-2.1-1-3.1-1.5-3.7-1.9-7.2-3.9-10.6-6.2-.6-.4-1.2-.8-1.8-1.3-1.2-1.1-2.6-2.1-3.8-3.1-3.2-2.9-6.3-5.9-9.1-9.2-.6-.6-1.1-1.3-1.7-2-1-1.4-2-2.8-3-4.3-2.2-3.5-4.3-7-6-10.7-.1-.2-.3-.6-.6-1 0-.1-.1-.3-.2-.5-.7-2-1.5-3.9-2.1-5.9-1.3-4-2.3-8.1-3-12.3-.1-.3-.1-.6-.2-.9 0-.6 0-1.2-.1-1.5-.2-1.9-.3-3.8-.3-5.8 0-1.1.2-2.2.2-3.3-.1-12.6.2-25.1.2-37.7v-121c0-2-.2-4-.2-6 0-.4-.1-.8-.1-1.2 0-1.3.8-6 0-3.1-.9 3.3.7-2.6.8-3.2.1-.2.3-1 .5-1.8 0 0 0-.1.1-.1.9-1.5 1.7-3 2.6-4.5 0 0 0-.1.1-.1.7-.8 1.6-1.7 1.7-1.8.6-.6 1.3-1.2 1.9-1.8l.3-.3c1.1-.7 2.7-1.5 3.3-1.9.6-.2 1.9-.8 2.1-.9.8-.3 1.7-.5 2.6-.7.2 0 .5-.1.8-.2-1.9.6 2.4-.2 3.5-.2.5 0 1 .1 1.5.1 2.2 0 4.4.1 6.6.1H207z" id="svg_1" class="selected" fill-opacity="1" fill="#033131"></path><path d="M397 292.9v19.7c0 1.9-.1 3.9-.2 5.8-.1 1.4-.3 2.8-.3 4.1-.1 1.8.2 1.2.3.2-.2 2.1-1.4 5.6-1.6 6.5-1 4.1-2.3 8.1-3.7 12.1-.2.5-.3.8-.3 1.1-.3.6-.7 1.2-.8 1.4-1 2.2-2.2 4.3-3.4 6.4-1.1 1.9-2.3 3.7-3.5 5.6-.6.9-1.1 1.8-1.7 2.7-.5.8-.7 1.2-.7 1.4-1 1.3-3 2.9-3.2 3.1-1.6 1.8-3.4 3.5-5.1 5.1-1.4 1.3-3 2.6-4.4 3.9l-.2.2c-.7.5-1.3 1-2 1.4-3.9 2.7-8.1 5.2-12.4 7.3-.8.4-1.6.7-2.4 1.1h-.1c-1.9.7-3.7 1.4-5.7 2-4.4 1.4-8.9 2.4-13.4 3.2-1.1.1-2.1.2-3.2.3-2.3.2-4.7.3-7 .3-1.5 0-3 0-4.6-.1-.8 0-1.6-.1-2.4-.1-.9-.1-1.8-.2-2.8-.2h-.3c-.2 0-.3-.1-.5-.1-4.2-.7-8.4-1.7-12.5-3-2-.6-4-1.4-6-2.1-1.3-.7-2.7-1.2-4-1.9-3.7-1.9-7.3-4-10.7-6.4-.2-.1-.9-.5-1.5-.9-.2-.2-.4-.4-.8-.7-1.8-1.6-3.6-3.1-5.4-4.8-1.6-1.5-3.1-3.1-4.6-4.7-.4-.4-1.9-1.9-3-3.1.2.1.1 0-.5-.9-.8-1.1-1.5-2.1-2.3-3.2-1.3-2-2.6-4-3.8-6.1-1-1.7-1.9-3.5-2.8-5.3-.2-.3-.5-.9-.9-1.6 0-.2-.1-.5-.3-.9-.9-2.7-1.8-5.3-2.6-8-.6-2-1.1-4.1-1.6-6.2-.2-.9-.4-1.8-.5-2.7-.1-.4-.2-.9-.2-1.3-.1-.7-.2-1.1-.2-1.3 0 .3.1 1.1.3 2.5-.7-1.1-.6-3.6-.6-5.4v-6.1c0-.9.1-1.8.1-2.8v-.3c0-2.9 0-5.7.1-8.6v-.9c.1-8.5.1-17.1 0-25.6V126h150v166.9zM587 126v186.9c0 1.8 0 3.7-.1 5.5-.1 1.4-.2 2.8-.3 4.1-.2 2.6.5.3.3-.9.3 1.7-1.3 6.5-1.6 7.6-1 4.1-2.3 8.1-3.7 12.1-.2.5-.3.9-.3 1.1-.3.6-.7 1.1-.8 1.4-1 2.2-2.2 4.3-3.4 6.4-1.1 1.9-2.3 3.7-3.5 5.6-.6.9-1.3 1.8-1.9 2.7-.6.8-.8 1.2-.8 1.4-1.2 1.3-2.8 2.9-3.1 3.1-1.6 1.8-3.3 3.5-5 5.1-1.4 1.3-2.9 2.6-4.4 3.9l-.2.2c-.7.5-1.3 1-2 1.4-4 2.7-8.1 5.2-12.4 7.3-.8.4-1.6.7-2.4 1.1h-.1c-1.9.7-3.7 1.4-5.6 2-4.4 1.4-8.9 2.4-13.4 3.2-1.1.1-2.1.2-3.2.3a81.93 81.93 0 0 1-14 0c-.9-.1-1.8-.2-2.8-.2h-.2c-.2 0-.4-.1-.6-.1-4.2-.7-8.4-1.7-12.4-3-2-.6-4-1.4-6-2.1-1.3-.7-2.6-1.2-3.9-1.8-3.7-1.9-7.3-4-10.7-6.4-.8-.5-1.5-1.1-2.3-1.6-1.7-1.6-3.6-3.1-5.3-4.7-1.6-1.5-3.1-3-4.6-4.6-.3-.3-1.8-1.8-3-3.1.1.1 0-.1-.6-.9-.8-1.1-1.5-2.1-2.3-3.2-1.3-2-2.6-4-3.8-6.1-1-1.7-1.9-3.4-2.8-5.2-.1-.2-.9-.9-.9-1.5 0-.2-.1-.5-.3-.9-1.7-4.6-3.2-9.3-4.3-14.1-.3-1.3-1.8-5.7-1.2-6.7 0 .3.5 5.1.2 1.2-.1-1.4-.3-2.8-.3-4.1-.1-1.9-.1-3.9-.1-5.8V126H587zm190.2 189.4V314.8c0-1.2 0-2.5-.1-3.7V126H627.4c0 15-.4 29-.4 43.3v139.9c0 4.5.3 8.9.6 13.3l.2 1.4c.2 1.3.5 2.7.8 4 .6 2.6 1.2 5.2 2 7.8.5 1.5.9 3 1.4 4.4.2.5 1 2.5 1 2.8s.2 0 .2 0c.2.4.5.7.6.9.7 1.4 1.4 2.8 2.1 4.1 1.4 2.5 2.8 4.9 4.4 7.3.7 1.1 1.5 2.2 2.2 3.2v.1c3.7 4 7.2 8.1 11.3 11.7.7.6 1.3 1.1 2 1.7.5.5.8.7 1 .9.5.3 1 .6 1.2.8 2.2 1.5 4.4 2.9 6.6 4.2 2.5 1.4 5 2.7 7.6 4 0 0 .1.1.3.2 1.2.4 2.3.9 3.5 1.3 5.3 1.9 10.7 3.1 16.3 4.1.5 0 1 .1 1.5.2 1.4.1 2.8.3 4.1.3 2.4.1 4.8.2 7.2.2.1 0 .2-.1.3 0 .5 0 1 .1 1.5.1 1 0 2.1-.3 3.1-.3.5 0 1.2-.2 1.8-.4-.3.1-.7.2-1 .3.7-.2 1.2-.3 1.6-.4-.2.1-.4.1-.6.2 2.3-.5 4.7-.7 7-1.3 2.8-.7 5.6-1.5 8.4-2.4 1.3-.4 2.5-.9 3.8-1.4 0 0 .1 0 .2-.1 5.1-2.7 10.1-5.1 14.8-8.4.7-.5 1.4-1.1 2.1-1.5.3-.2.5-.3.6-.3l1-1c2-1.7 3.9-3.5 5.8-5.4 2-2 3.9-4.1 5.7-6.3l.2-.2c.8-1.2 1.7-2.4 2.5-3.6 3-4.4 5.3-9.1 7.6-13.8.2-.5.4-.9.5-1.4.5-1.3.9-2.5 1.3-3.8.9-2.8 1.6-5.6 2.3-8.5.3-1.5.6-3.1.9-4.7v-.2c.1-.9.2-1.8.2-2.8 0-.6.1-1.2.1-1.8 0-.6.1-1.1.1-1.7.3-.7.3-1.1.3-1.6zm-6.2-4.1V311.6v-.3zm.1.7v-.3.4c0 .1 0 .3.1.4-.1-.1-.1-.3-.1-.5zm.1-1.8s0-.1 0 0c0-.1 0-.1 0 0-.1-.1-.1-.1 0 0-.1 0-.1.2-.1.3v.3c0 .2-.1.3-.1.3v.2c0-.1.1-.1.1-.2 0-.3.1-.6.1-.9zM967 323.5c-.2.9-.5 1.9-.6 2.5-.8 4.1-1.9 8.2-3.2 12.2-.4 1.1-1.1 2.4-1.1 3.6 0 .3-.5.8-.7 1.2-.6 1.3-1.2 2.5-1.8 3.7-1.9 3.6-4.2 7.1-6.6 10.5-.2.3.1.7-.9 1.1h.2c-.2.2-.3.4-.6.8-1.5 1.7-2.9 3.4-4.5 5.1-2.8 2.9-5.7 5.5-8.8 8.1l-2.1 1.5c-2.1 1.4-4.2 2.8-6.3 4-1.6.9-3.2 1.8-4.8 2.6-1 .5-2.1 1-3.1 1.5-.6.3-1 .6-1.2.8-1.2.4-2.7.7-3.6 1-2.5.8-5 1.5-7.6 2.2-2.1.5-4.2.9-6.3 1.3h-.6c-.4 0-.8.1-1 .1-1.5.1-2.9.2-4.4.3-1.9-1-4.2-1.4-6.9-.7-1.1.3-2.1.5-3.2.7-1.1 0-2.1-.1-3.2-.2-.5 0-4.9-.2-1.5-.1 3.4.1-.9-.2-1.4-.3-1.8-.3-3.6-.7-5.3-1.1-4.4-1-8.6-2.4-12.8-4-.3-.1-.6-.2-.8-.3-.5-.3-.9-.5-1.1-.6-1.8-.9-3.5-1.8-5.3-2.8l-4.5-2.7-2.7-1.8c-.7-.5-4.5-2.4-1.7-1.1.6.3 1 .4 1 .5-.3-.2-1.7-1-2.1-1.3-.7-.6-1.3-1.1-2-1.7a81.373 81.373 0 0 1-8.3-8.3c-.6-.7-1.2-1.3-1.7-2-.6-.7-1.1-1.3-1.7-2 .5.7 1 1.3 1.5 2-1-.3-3.2-4.5-3.8-5.4-1-1.5-1.9-3-2.7-4.5-1.1-1.9-2.1-3.9-3.1-5.8-.3-.7-.7-1.5-1-2.2v-.1c0-.1-.1-.2-.1-.3-1.4-3.8-2.6-7.6-3.6-11.5-.5-2-.9-4-1.3-6-.1-.8-.3-1.3-.5-1.5-.1-.8-.1-1.6-.1-2.1-.1-1.1-.1-2.1-.2-3.2v-.1c0-.7-.1-1.1-.1-2.1h.1c0-2-.1-4.5-.1-6.7.2-21.4-.2-42.8-.2-64.2V126h127.7c.8 0 1.6-.1 2.4-.1h2.1c.4 0 .9.1 1.4.2 1.3.3 2.6.7 3.9 1 .2.1.6.2.9.4 0 0 .1 0 .1.1.1 0 .1.1.2.1 1.3.8 2.6 1.5 3.9 2.3h.1c.2.2.4.3.5.4 1.2 1.1 2.2 2.4 3.4 3.5.3.4.5.8.5.8.8 1.2 1.3 2.6 2.1 3.8.1.4.3.8.3.9.3 1.1.5 2.8.8 4.1-.1.8-.2 1.7-.2 2.6v161.8c0 1.5.2 3 .2 4.5 0 1.1.1 2.2.1 3.3-.1 2.2-.2 4.3-.4 6.5-.1.5-.1 1 0 1.3z" id="svg_2"></path></g></svg> 