<?xml version="1.0" encoding="UTF-8"?> <svg xmlns="http://www.w3.org/2000/svg" height="50" width="50"><rect id="backgroundrect" width="100%" height="100%" x="0" y="0" fill="none" stroke="none" style="" class=""></rect><g class="currentLayer" style=""><title>Layer 1</title><path d="m14.999383402695642,15.893617517742715 c-0.45010440632031096,0 -0.8149861214170955,0.3648817150967864 -0.8149861214170955,0.8149861214170955 s0.3648817150967864,0.8149861214170955 0.8149861214170955,0.8149861214170955 h1.4501022793804625 a0.5653327431209133,0.5653327431209133 35.784145 0 1 0.5363318287340415,0.3865891393861505 l2.6870019889356844,8.062524774942926 c0.11932351981280599,0.35797056758827955 0.13449474725854418,0.74339567044707 0.04297777967167404,1.1094635081951028 l-0.22125599373166396,0.8866157406201174 c-0.3246451982935262,1.2985807931741056 0.6861847042055492,2.5945847632295127 2.024731145395597,2.5945847632295127 h9.779833457005148 c0.45010440632031096,0 0.8149861214170955,-0.3648817150967864 0.8149861214170955,-0.8149861214170955 s-0.3648817150967864,-0.8149861214170955 -0.8149861214170955,-0.8149861214170955 h-9.779833457005148 c-0.3173443407214808,0 -0.5210710750628652,-0.2603925808158751 -0.44410376945651286,-0.5682618032412873 l0.16685452914650303,-0.6664189925003223 a0.5220972974370937,0.5220972974370937 142.02823 0 1 0.5064640788087074,-0.3952914470925849 h8.735632488939494 c0.3509086720968938,0.00018346152579220282 0.662546455546628,-0.22424704984629332 0.7736001074388856,-0.5571194189374684 l2.1727657134814713,-6.519888971336765 c0.17600818431683976,-0.5279374472338607 -0.217096060072115,-1.0731067328228507 -0.7736001155887461,-1.072852783147417 h-13.130508717598653 a0.5653664183474498,0.5653664183474498 35.782526 0 1 -0.5363536785119565,-0.3865818615600861 l-0.7720810711068976,-2.3162432051708293 c-0.11105365189225629,-0.332872369091176 -0.42269143534199133,-0.5573028804632607 -0.7736001074388856,-0.5571194189374684 zm5.704902849919669,15.484736306924816 c-0.9002088126406207,0 -1.6299722428341918,0.7297634301935723 -1.6299722428341918,1.6299722428341918 s0.7297634301935723,1.6299722428341918 1.6299722428341918,1.6299722428341918 s1.6299722428341918,-0.7297634301935723 1.6299722428341918,-1.6299722428341918 s-0.7297634301935723,-1.6299722428341918 -1.6299722428341918,-1.6299722428341918 zm9.779833457005148,0 c-0.9002088126406207,0 -1.6299722428341918,0.7297634301935723 -1.6299722428341918,1.6299722428341918 s0.7297634301935723,1.6299722428341918 1.6299722428341918,1.6299722428341918 s1.6299722428341918,-0.7297634301935723 1.6299722428341918,-1.6299722428341918 s-0.7297634301935723,-1.6299722428341918 -1.6299722428341918,-1.6299722428341918 z" paint-order="fill markers stroke" id="svg_1" class="" fill-opacity="1" fill="#313130"></path></g></svg> 