<?xml version="1.0" encoding="UTF-8"?> <svg xmlns="http://www.w3.org/2000/svg" width="227" height="40" viewBox="0 0 227 40" fill="none"><path d="M30.5122 30.4725C30.5122 28.7843 32.6455 26.6946 37.1009 26.6946C37.3673 26.6946 37.6337 26.6946 37.8962 26.7206C37.5542 29.967 34.9915 32.1886 32.4864 32.1886C31.2856 32.1886 30.5122 31.6252 30.5122 30.4725ZM21.8697 12.73H21.9234L20.5316 25.5419C19.0288 25.0906 17.4952 24.7502 15.943 24.523L21.8697 12.73ZM12.2152 24.2553C8.90891 24.2553 5.44157 25.0864 3.65422 27.0682C2.65577 25.1709 2.15104 23.0508 2.18697 20.905C2.18697 15.1953 5.89487 9.88912 13.0164 6.52083L12.1098 4.59095C3.76158 8.39077 0 14.6599 0 20.905C0 23.8538 0.693865 26.6986 2.53291 29.3997C2.47968 29.7011 2.45306 30.0066 2.45338 30.3127C2.45338 32.5901 3.86696 34.2244 6.80147 34.2244C9.86919 34.2244 12.4816 32.1067 14.0562 27.9273H11.7619C10.6147 30.7142 8.74787 32.1646 6.80147 32.1646C5.28053 32.1646 4.6145 31.4674 4.6145 30.3167C4.6145 28.3328 7.0142 26.321 12.243 26.321C14.9861 26.3302 17.7114 26.7642 20.3229 27.6076L19.9511 31.1178H22.0844L24.0845 12.2226C25.3122 11.9612 26.5633 11.8273 27.8182 11.823C32.5123 11.823 33.7926 13.4852 33.7926 15.2812C33.7926 17.6666 31.8462 19.3267 27.178 19.8641L27.8719 13.4053L25.7386 13.4852L23.8717 31.1198H26.005L26.9375 22.1956C28.5274 21.7637 30.1638 21.5281 31.8104 21.4944C34.9577 21.4944 37.093 22.7809 37.7331 24.6908C37.5204 24.6693 37.3067 24.6607 37.093 24.6649C31.037 24.6649 28.3451 27.7735 28.3451 30.5084C28.3451 32.9198 30.1344 34.2603 32.4526 34.2603C35.8325 34.2603 39.4946 31.5253 40.0076 27.0502C41.5514 27.412 43.028 28.0192 44.3815 28.8483C40.7273 34.2883 33.3393 37.8524 24.4841 37.8524C20.136 37.8524 14.6964 36.9154 11.0959 34.4221L9.97456 36.2202C13.5234 38.7933 19.2036 40 24.4881 40C38.8644 40 49 31.4754 49 20.943C49 9.87514 37.9836 1.88792 24.5159 1.88792C23.6888 1.88792 23.1023 1.91389 22.3011 1.96784L22.5138 4.08551C23.154 4.05953 23.8479 4.03157 24.4881 4.03157C36.5164 4.03157 46.813 11.3215 46.813 20.943C46.818 23.06 46.342 25.1501 45.4213 27.0542C44.0614 26.1692 42.0872 25.3661 39.9798 24.9645C39.5265 22.3914 37.421 20.1938 33.3393 19.7703C34.1394 19.3269 34.8068 18.6764 35.272 17.8863C35.7374 17.0962 35.9838 16.1953 35.9856 15.2772C35.9856 11.9808 33.6654 9.75527 27.8242 9.75527C26.6538 9.75817 25.4855 9.85706 24.331 10.0509L24.5636 7.79143L22.4045 7.20208L20.5376 10.908C17.5236 11.787 14.5891 13.0796 12.8554 14.0705L13.8157 15.9205C15.5674 15.0169 17.3758 14.2287 19.2294 13.5611L13.8435 24.3093C13.2828 24.2813 12.748 24.2553 12.2152 24.2553ZM20.5654 5.0924C20.5654 2.76096 17.9252 0.669264 14.9986 0C14.705 1.20271 14.5423 2.43392 14.5135 3.67196C14.5135 6.94236 16.1935 7.9053 17.7681 7.9053C19.4441 7.9053 20.5635 6.78054 20.5635 5.0924H20.5654Z" fill="#63C634"></path><path d="M65.3611 15.4778C63.3911 15.4778 62.2655 16.4667 62.0406 17.9362H59.2248C59.6761 14.6594 61.8708 12.9349 65.3611 12.9349C69.1619 12.9349 71.2159 14.8559 71.2159 18.7805V27.3444H68.4017V23.9572C67.6982 26.0194 66.207 27.6302 63.307 27.6302C60.661 27.6302 59 26.2175 59 23.673C59 20.4514 61.9565 18.7286 68.4017 18.7286V18.5012C68.4017 16.4667 67.276 15.4778 65.3611 15.4778ZM63.954 25.1994C66.8539 25.1994 68.4017 23.194 68.4017 20.7632C63.7567 20.7632 61.9565 21.8365 61.9565 23.5236C61.9565 24.6067 62.7167 25.1994 63.954 25.1994ZM73.6371 22.7133H76.5645C76.9026 24.1747 77.8584 25.0873 79.9998 25.0873C82.5326 25.0873 83.1795 24.1829 83.1795 23.1648C83.1795 22.2035 82.4485 21.4695 80.506 21.4695H78.1415V19.0679H80.0823C82.0797 19.0679 82.7283 18.3892 82.7283 17.3711C82.7283 16.3254 81.8549 15.4778 79.9691 15.4778C77.8584 15.4778 77.0983 16.5527 76.8443 17.7105H73.9169C74.1999 14.8006 76.4529 12.9349 80.0224 12.9349C83.9639 12.9349 85.6832 14.7714 85.6832 16.9197C85.6832 18.36 84.8114 19.5762 83.207 20.0049C85.0071 20.4011 86.1344 21.6725 86.1344 23.2524C86.1344 25.542 84.3327 27.6366 79.9982 27.6366C75.8901 27.6302 73.9185 25.6232 73.6371 22.7133ZM89.6263 24.4362C88.6963 22.9959 88.3874 21.0733 88.3874 18.6425C88.3874 11.8048 90.8652 8.86573 96.7751 8.15938C98.69 7.93205 99.7025 7.70635 99.8998 7H102.546C102.096 9.68411 100.12 10.2784 97.2263 10.6454C92.4405 11.2673 91.2016 13.047 91.09 17.2591C92.0184 15.054 94.1857 13.5244 96.8317 13.5244C100.83 13.5244 103.278 16.6907 103.278 20.5618C103.278 24.4898 100.294 27.6269 95.8192 27.6269C92.9468 27.6302 90.7245 26.1882 89.6263 24.4362ZM100.322 20.5651C100.322 17.967 98.4652 16.0721 95.8192 16.0721C93.2007 16.0721 91.344 17.9654 91.344 20.5651C91.344 23.2216 93.2023 25.0873 95.8208 25.0873C98.4603 25.0873 100.322 23.2265 100.322 20.5651ZM105.415 33V30.4555C108.37 30.4555 108.933 29.9197 109.834 27.4044L104.15 13.2175H107.163L111.357 23.7591L115.494 13.2175H118.224L112.258 28.0816C110.738 31.8975 109.64 33 105.415 33ZM119.886 13.2175H122.701V19.5762L128.867 13.2175H132.245L125.713 19.9432L132.777 27.3476H128.978L122.701 20.7063V27.3476H119.886V13.2175ZM139.76 15.4778C137.788 15.4778 136.662 16.4667 136.438 17.9362H133.623C134.073 14.6594 136.269 12.9349 139.76 12.9349C143.559 12.9349 145.614 14.8559 145.614 18.7805V27.3444H142.799V23.9572C142.095 26.0194 140.604 27.6302 137.704 27.6302C135.058 27.6302 133.397 26.2175 133.397 23.673C133.397 20.4514 136.353 18.7286 142.799 18.7286V18.5012C142.799 16.4667 141.673 15.4778 139.76 15.4778ZM138.351 25.1994C141.251 25.1994 142.799 23.194 142.799 20.7632C138.155 20.7632 136.353 21.8365 136.353 23.5236C136.353 24.6067 137.115 25.1994 138.351 25.1994ZM156.507 13.2175H162.868C165.993 13.2175 167.711 14.5457 167.711 16.8905C167.711 18.3519 166.81 19.6038 165.008 20.0844C167.064 20.4238 168.33 21.4971 168.33 23.3888C168.33 25.3114 167.091 27.346 163.236 27.346H156.507V13.2175ZM164.811 17.3711C164.811 16.3822 164.191 15.619 162.728 15.619H159.273V19.0956H162.734C164.191 19.0956 164.811 18.3324 164.811 17.3711ZM159.273 21.3559V24.946H163.072C164.762 24.946 165.38 24.1341 165.38 23.1079C165.38 22.2035 164.762 21.3559 162.932 21.3559H159.273ZM171.094 13.2175H173.91V19.5762L180.074 13.2175H183.453L176.922 19.9432L183.988 27.3476H180.187L173.91 20.7063V27.3476H171.094V13.2175ZM185.225 33V30.4555C188.182 30.4555 188.745 29.9197 189.645 27.4044L183.959 13.2175H186.97L191.166 23.7591L195.303 13.2175H198.033L192.067 28.0816C190.54 31.8975 189.442 33 185.219 33H185.225ZM209.971 22.1207H212.785C212.109 25.7108 209.66 27.6318 206.086 27.6318C201.719 27.6318 198.767 24.3842 198.767 20.2842C198.767 16.215 201.722 12.9365 206.029 12.9365C209.749 12.9365 212.138 14.9988 212.672 18.3064H209.858C209.322 16.4975 208.112 15.4794 206.029 15.4794C203.442 15.4794 201.722 17.4019 201.722 20.2842C201.722 23.1956 203.501 25.0889 206.029 25.0889C208.104 25.0873 209.455 24.0984 209.963 22.119L209.971 22.1207ZM221.145 15.4794C219.175 15.4794 218.05 16.4683 217.823 17.9378H215.009C215.459 14.661 217.655 12.9365 221.145 12.9365C224.946 12.9365 227 14.8575 227 18.7822V27.346H224.186V23.9572C223.482 26.0194 221.989 27.6302 219.091 27.6302C216.445 27.6302 214.784 26.2175 214.784 23.673C214.784 20.4514 217.739 18.7286 224.186 18.7286V18.5012C224.178 16.4667 223.052 15.4778 221.137 15.4778L221.145 15.4794ZM219.738 25.201C222.638 25.201 224.186 23.1956 224.186 20.7648C219.541 20.7648 217.739 21.8381 217.739 23.5252C217.731 24.6067 218.491 25.1994 219.73 25.1994L219.738 25.201Z" fill="#124F2E"></path></svg> 