<?xml version="1.0" encoding="UTF-8"?> <svg xmlns="http://www.w3.org/2000/svg" id="_Слой_2" data-name="Слой 2" viewBox="0 0 760.74 151.1"><defs><style> .cls-1 { fill: #ee1f28; fill-rule: evenodd; stroke-width: 0px; } </style></defs><g id="_1" data-name="1"><path class="cls-1" d="m200.9.37c14.22-1.23,29.06.52,41.89,7.08,17.59,8.47,30.24,25.58,34.89,44.36,4.65,18.73,4.18,39.06-3.08,57.07-5.18,13.23-14.64,24.75-26.85,32.07-15.27,9.15-33.9,11.82-51.36,9.19-17.71-2.39-34.65-11.59-45.27-26.1-9.42-12.74-13.9-28.58-14.46-44.28-.82-17.4,2.71-35.55,12.7-50.07,7.5-11.26,18.67-20.1,31.43-24.64,6.39-2.68,13.3-3.65,20.11-4.68h0Zm1.79,35.63c-7.34,1.44-13.14,6.95-16.66,13.33-4.63,9.03-5.86,19.42-5.29,29.44.43,9.81,2.32,20.22,8.77,27.97,9.54,12.1,30.98,11.57,39.52-1.44,6.39-9.85,7.48-22.12,7.25-33.58-.45-10.28-2.4-21.3-9.61-29.14-5.9-6.56-15.61-8.43-23.98-6.58h0ZM0,3.74c20.48,0,40.97,0,61.45,0,9.59.26,19.34.56,28.55,3.53,13.52,3.27,25.87,13.03,30.39,26.44,3.86,11.46,4.54,24.1,1.71,35.87-2.55,10.96-9.95,20.58-19.69,26.15-8.82,4.87-18.88,7.34-28.93,7.49-10.04.06-20.08-.04-30.12.05.02,14.82,0,29.64.01,44.46H0V3.74h0Zm43.36,35.51c.01,10.16,0,20.32,0,30.49,8.05-.06,16.11.13,24.16-.09,5.29-.19,10.9-2.58,13.35-7.52,2.12-5.14,2.05-11.33-.57-16.28-2.58-4.53-8.09-6.03-12.95-6.36-7.99-.5-16-.14-23.99-.24h0ZM313.29,3.74h112.57c0,48,0,96,0,144h-43.36c0-35.67,0-71.33,0-107h-26.36c-.14,22.87.74,46.06-4.31,68.52-2.88,12.22-8.04,24.78-18.22,32.69-12.39,9.84-30,10.64-44.44,5.24.04-11.39,0-22.77,0-34.16,4.27,2.16,9.65,3.14,13.96.56,4.51-2.92,6.31-8.36,7.6-13.31,2.25-9.67,2.37-19.67,2.53-29.55.05-22.33,0-44.66.02-66.99h0Zm138.52,0c14.56-.02,29.12,0,43.67,0,.01,15,.01,30,.01,45,19.35.52,40.13-2.44,57.92,7.02,11.24,5.37,18.88,16.65,21.1,28.75,2.36,13.1,1.66,27.43-5.08,39.2-6.11,11.08-17.52,18.48-29.69,21.29-8.2,2.43-16.81,2.7-25.3,2.75-20.87-.02-41.75,0-62.63-.02.01-47.99.01-95.99,0-143.98h0Zm43.68,77.75c0,10.66-.01,21.33,0,31.99,6.99-.04,14,.07,21-.04,5.1-.23,10.69-1.53,14.04-5.7,3.45-4.84,3.42-11.37,1.78-16.88-1.42-5.2-6.57-8.59-11.79-8.97-8.32-.82-16.7-.23-25.04-.4h0ZM653.47,3.74c14.25,0,28.5,0,42.75,0-.01,4.74-.01,9.49,0,14.23,18.15-.02,37.3,5.49,49.98,19.09,19.63,20.81,19.09,56.54.17,77.62-12.68,13.69-31.92,19.25-50.15,19.07-.01,4.66-.01,9.32,0,13.97-14.25.02-28.5.01-42.75.01v-13.99c-16.33-.13-33.32-4.34-45.89-15.24-22.8-18.94-25.83-56.76-6.67-79.29,12.58-15.36,33.3-21.44,52.55-21.23,0-4.75,0-9.5,0-14.25h0Zm-13.56,50.5c-5.07,4.74-7.56,11.68-8.06,18.49-.23,7,.6,14.34,4.22,20.48,3.77,6.26,11.07,10.04,18.37,9.6,0-17.87,0-35.74,0-53.61-5.16.35-10.57,1.46-14.52,5.04h0Zm55.33-5.04c0,17.7,0,35.4,0,53.1,4.89-.46,10.02-1.55,13.76-4.96,5.78-5.11,7.86-13.14,8.17-20.59.04-7.67-1.56-15.95-6.97-21.73-3.89-4.03-9.5-5.64-14.96-5.82Z"></path></g></svg> 