<?xml version="1.0" encoding="UTF-8"?> <svg xmlns="http://www.w3.org/2000/svg" id="_Слой_1" data-name="Слой 1" viewBox="0 0 117 19.5"><defs><style> .cls-1 { fill: #e21235; } </style></defs><path class="cls-1" d="m3.54,17.23c3.1,0,4.73-3.12,6.16-7.35h.23c-.58,3.65-.39,7.35,3.03,7.35,3.08,0,4.55-3.15,5.84-7.35h.23c-.6,3.58-.44,7.35,3.08,7.35,3.08,0,4.8-3.08,5.47-7.33h-2.16c-.25.94-.69,1.86-1.49,1.86-1.68,0-.76-2.8-.02-6.32l1.06-5.1h-5.17s-2.74,11.42-4.89,11.42c-1.59,0-.8-3.12-.14-6.36L15.79.34h-5.17c-.97,3.79-3.01,11.42-4.92,11.42-.62,0-.78-.39-.78-.9,0-.32.09-.67.21-.96H.39c-.25,1.01-.39,1.97-.39,2.96,0,2.48.92,4.36,3.54,4.36Zm26.89,0c1.36,0,2.44-1.06,2.44-2.41s-1.08-2.41-2.44-2.41-2.44,1.06-2.44,2.41,1.08,2.41,2.44,2.41Zm14-5.49c0,1.15-.85,1.65-1.79,1.65h-3.31v-3.35h3.33c1.06,0,1.77.64,1.77,1.7h0Zm-5.1-7.9h3.03c.87,0,1.56.48,1.56,1.49s-.8,1.49-1.56,1.49h-3.03v-2.99h0Zm6.41,4.39c1.24-.48,2.48-1.59,2.48-3.67,0-2.66-2-4.2-5.08-4.2h-8.04v16.54h8.14c3.12,0,5.49-1.52,5.49-4.59,0-2.16-1.29-3.58-2.99-4.11v.05Zm66.97.41c0,2.34-1.52,4.46-4.28,4.46s-4.39-2.07-4.39-4.5,1.52-4.46,4.27-4.46,4.39,2.07,4.39,4.5h0Zm-12.96-.02c0,4.98,3.77,8.61,8.64,8.61s8.62-3.67,8.62-8.61-3.77-8.61-8.64-8.61-8.62,3.67-8.62,8.61h0Zm-21.79-4.25v8.5h-5.01c.71-1.54,1.06-4.5,1.06-8.31v-.18h3.95,0Zm4.23,8.5V.34h-12.16v1.26c0,5.67-.28,9.97-1.56,11.25h-1.72v6.64h4.23v-2.62h9.4v2.62h4.23v-6.64h-2.41Zm8.37,0v-2.43h6.94v-3.79h-6.94v-2.27h7.58V.34h-11.81v16.54h12.07v-4.02h-7.84ZM60.95.34l-6.04,9.39V.34h-4.23v16.54h4.23l6.04-9.39v9.39h4.23V.34h-4.23Z"></path></svg> 