<?xml version="1.0" encoding="UTF-8"?> <svg xmlns="http://www.w3.org/2000/svg" xmlns:xlink="http://www.w3.org/1999/xlink" version="1.1" id="Layer_1" x="0px" y="0px" viewBox="0 0 92 48" style="enable-background:new 0 0 92 48;" xml:space="preserve"> <style type="text/css"> .st0{fill-rule:evenodd;clip-rule:evenodd;fill:#FF3C28;} </style> <path class="st0" d="M1.6,6.3C2,6.6,2.6,6.8,3.1,7c0.6,0.1,1.1,0.3,1.7,0.4c0.5,0.1,0.9,0.2,1.3,0.3C6.6,7.7,6.9,7.8,7.2,8 C7.5,8.1,7.8,8.3,8,8.4c0.2,0.2,0.3,0.4,0.3,0.7c0,0.3-0.1,0.6-0.3,0.8c-0.2,0.2-0.5,0.4-0.8,0.5c-0.3,0.1-0.7,0.2-1.1,0.3 c-0.4,0-0.7,0.1-1.1,0c-0.5,0-1.1-0.2-1.8-0.5C2.6,10,1.8,9.6,0.9,9c-0.3,0.8-0.5,1.2-0.8,2c0.5,0.3,0.9,0.6,1.3,0.8 c0.4,0.2,0.8,0.4,1.2,0.6c0.4,0.2,0.8,0.3,1.2,0.4c0.4,0.1,0.9,0.1,1.3,0.2c0.5,0,1.1,0,1.8-0.1c0.6-0.1,1.2-0.3,1.8-0.5 c0.5-0.3,1-0.6,1.4-1.1c0.4-0.5,0.5-1.1,0.5-1.9c0-0.5-0.1-1-0.2-1.4c-0.2-0.4-0.4-0.7-0.6-1C9.5,6.6,9.2,6.3,8.9,6.1 C8.5,6,8.2,5.8,7.8,5.7C7.4,5.5,7,5.4,6.6,5.3C6.2,5.3,5.9,5.2,5.5,5.1C5.3,5.1,5,5,4.7,5C4.3,4.9,4,4.8,3.7,4.7 C3.3,4.6,3,4.4,2.8,4.3C2.5,4.1,2.4,3.8,2.4,3.5c0-0.2,0-0.4,0.1-0.6C2.6,2.7,2.8,2.6,3,2.5c0.2-0.1,0.5-0.2,0.9-0.3 c0.4-0.1,0.8-0.1,1.4,0C6,2.2,6.7,2.4,7.4,2.6c0.8,0.3,1.5,0.6,2.1,1.1c0.3-0.7,0.4-1,0.7-1.7c-1.6-1.1-3.2-1.8-5-2 C4.8,0,4.2,0,3.6,0C3,0.1,2.4,0.2,1.9,0.4c-0.5,0.2-1,0.6-1.3,1C0.2,2,0,2.6,0,3.4c0,0.7,0.1,1.3,0.4,1.8C0.7,5.6,1.1,6,1.6,6.3z"></path> <path class="st0" d="M20.4,6.5c-2.2-0.1-3.3-0.2-5.6-0.3V1.2c-1-0.1-1.5-0.1-2.5-0.2c0,4.8,0,7.2,0,12.1c1,0,1.5,0.1,2.5,0.1V8.4 c2.2,0.1,3.4,0.2,5.6,0.3v4.7c1,0,1.5,0,2.5,0.1V1.7c-1-0.1-1.5-0.1-2.5-0.1V6.5z"></path> <path class="st0" d="M35.5,12.4c0.6-0.5,1.1-1.1,1.5-1.8C37.4,9.8,37.6,9,37.6,8c0-1-0.2-1.8-0.6-2.6c-0.4-0.8-0.9-1.4-1.5-1.9 c-0.6-0.5-1.3-0.9-2.1-1.2c-0.8-0.3-1.6-0.5-2.4-0.5c-0.8,0-1.6,0.1-2.4,0.3c-0.8,0.2-1.5,0.6-2.2,1c-0.6,0.5-1.2,1.1-1.5,1.9 c-0.4,0.8-0.6,1.7-0.6,2.7c0,1,0.2,1.9,0.6,2.7c0.4,0.8,0.9,1.4,1.5,1.9c0.6,0.5,1.4,0.9,2.2,1.2c0.8,0.3,1.6,0.4,2.4,0.4 c0.8,0,1.6-0.1,2.4-0.3C34.2,13.2,34.9,12.9,35.5,12.4z M31,11.8c-0.7,0-1.3-0.1-1.8-0.3c-0.5-0.2-1-0.5-1.4-0.9 c-0.4-0.4-0.7-0.8-0.9-1.3c-0.2-0.5-0.3-1-0.3-1.6c0-0.6,0.1-1.1,0.3-1.6c0.2-0.5,0.5-0.9,0.9-1.3c0.4-0.4,0.8-0.6,1.4-0.8 c0.5-0.2,1.1-0.3,1.8-0.3c0.7,0,1.2,0.1,1.8,0.4c0.5,0.2,1,0.5,1.4,0.9c0.4,0.4,0.7,0.8,0.9,1.3c0.2,0.5,0.3,1,0.3,1.6 c0,0.6-0.1,1.1-0.3,1.6c-0.2,0.5-0.5,0.9-0.9,1.2c-0.4,0.3-0.8,0.6-1.4,0.8C32.2,11.7,31.6,11.8,31,11.8z"></path> <path class="st0" d="M41.5,10.2c1.3,0,2,0,3.3,0c0.6,0,1.2-0.1,1.8-0.3c0.6-0.2,1.1-0.4,1.5-0.8c0.4-0.3,0.8-0.7,1-1.2 c0.2-0.5,0.4-1,0.4-1.7c0-0.6-0.1-1.2-0.4-1.7c-0.2-0.5-0.6-0.9-1-1.3c-0.4-0.3-0.9-0.6-1.5-0.8c-0.6-0.2-1.2-0.3-1.8-0.3 c-2.3,0-3.4,0-5.7-0.1v11.4c1,0,1.5,0,2.5,0V10.2z M41.5,4.4c1.3,0,1.9,0,3.2,0c0.3,0,0.7,0,0.9,0.2c0.3,0.1,0.5,0.3,0.7,0.5 c0.2,0.2,0.3,0.4,0.4,0.6c0.1,0.2,0.2,0.5,0.2,0.7c0,0.3-0.1,0.5-0.2,0.8c-0.1,0.2-0.3,0.5-0.5,0.6c-0.2,0.2-0.5,0.3-0.8,0.4 c-0.3,0.1-0.6,0.1-1,0.1c-1.2,0-1.8,0-2.9,0V4.4z"></path> <path class="st0" d="M53.2,10.2c1.3,0,2,0,3.3,0c0.6,0,1.2-0.1,1.8-0.3c0.6-0.2,1.1-0.5,1.5-0.8c0.4-0.3,0.8-0.8,1-1.3 c0.2-0.5,0.4-1.1,0.4-1.7c0-0.6-0.1-1.2-0.4-1.7c-0.2-0.5-0.6-0.9-1-1.3c-0.4-0.3-0.9-0.6-1.5-0.7c-0.6-0.2-1.2-0.2-1.8-0.2 c-2.3,0.1-3.4,0.1-5.7,0.1v11.4c1,0,1.5,0,2.5,0V10.2z M53.2,4.3c1.3,0,1.9,0,3.2-0.1c0.3,0,0.7,0,0.9,0.1c0.3,0.1,0.5,0.3,0.7,0.4 c0.2,0.2,0.3,0.4,0.4,0.6c0.1,0.2,0.2,0.5,0.2,0.7c0,0.3-0.1,0.5-0.2,0.8c-0.1,0.2-0.3,0.5-0.5,0.6c-0.2,0.2-0.5,0.3-0.8,0.4 c-0.3,0.1-0.6,0.2-1,0.2c-1.2,0-1.8,0-2.9,0V4.3z"></path> <path class="st0" d="M65,1.9c-1,0-1.4,0.1-2.4,0.1c0,4.6,0,6.9,0,11.5c1,0,1.4,0,2.4,0V1.9z"></path> <path class="st0" d="M69.7,6c3.1,2.8,4.6,4.2,7.6,7.1c0.4,0,0.6,0,1.1,0v-12c-1,0.1-1.4,0.1-2.4,0.2v7.1c-2.9-2.7-4.4-4.1-7.3-6.7 c-0.6,0-0.9,0-1.4,0.1c0,4.6,0,7,0,11.6c1,0,1.5,0,2.4-0.1V6z"></path> <path class="st0" d="M85.7,7.8c1.5-0.1,2.2-0.1,3.7-0.2v1.8c-0.2,0.2-0.5,0.4-0.7,0.5c-0.3,0.2-0.5,0.3-0.9,0.4 c-0.3,0.1-0.6,0.2-0.9,0.3c-0.3,0.1-0.6,0.1-1,0.1c-0.5,0-1,0-1.5-0.2c-0.5-0.2-0.9-0.4-1.2-0.8c-0.3-0.3-0.6-0.8-0.8-1.3 c-0.2-0.5-0.3-1.1-0.3-1.7c0-0.6,0.1-1.2,0.3-1.7c0.2-0.5,0.5-1,0.8-1.3c0.3-0.4,0.7-0.7,1.2-0.9c0.5-0.2,1-0.4,1.5-0.4 c0.5,0,1,0,1.4,0c0.4,0,0.8,0.1,1.1,0.2c0.1,0,0.3,0.1,0.5,0.2c0.2,0.1,0.4,0.2,0.6,0.3c0.2,0.1,0.4,0.2,0.6,0.3 c0.2,0.1,0.3,0.2,0.4,0.2c0.4-0.7,0.6-1.1,1-1.8c-0.1-0.1-0.2-0.2-0.4-0.3c-0.2-0.1-0.4-0.3-0.7-0.4c-0.2-0.1-0.5-0.3-0.8-0.4 c-0.3-0.1-0.6-0.2-0.8-0.3c-0.3-0.1-0.6-0.1-0.8-0.1c-0.3,0-0.5,0-0.8-0.1c-0.3,0-0.5,0-0.7,0c-0.2,0-0.4,0-0.5,0 c-0.7,0.1-1.4,0.3-2.2,0.6c-0.7,0.3-1.4,0.8-2,1.3c-0.6,0.6-1.1,1.2-1.4,2C80,5,79.8,5.9,79.8,6.9c0,1,0.2,1.9,0.5,2.7 c0.4,0.8,0.8,1.4,1.4,1.9c0.6,0.5,1.2,0.9,2,1.1c0.7,0.2,1.4,0.4,2.2,0.3c0.7,0,1.4-0.1,2-0.4c0.6-0.2,1.2-0.4,1.6-0.7 c0.5-0.3,0.9-0.5,1.2-0.8c0.3-0.3,0.6-0.5,0.8-0.7v-5c-2.3,0.2-3.5,0.3-5.8,0.4C85.7,6.7,85.7,7,85.7,7.8z"></path> <path class="st0" d="M5,17.1C3.5,17,2.5,17,1,17c-0.5,0-1,0.4-1,1c0,9.6,0,19.3,0.1,28.9c0,0.6,0.5,1,1.1,0.9 c6.2-0.6,12.4-1.2,18.6-1.6c0.5,0,0.9-0.4,0.9-0.9v-3.1c0-0.5-0.5-1-1-1c-4.2,0.2-8.4,0.5-12.6,0.8c-0.6,0-1-0.4-1-0.9V18 C6,17.5,5.6,17.1,5,17.1z"></path> <path class="st0" d="M25.8,45.7c1.4-0.1,2.4-0.1,3.9-0.2c0.5,0,0.9-0.4,0.9-1v-26c0-0.5-0.4-0.9-0.9-1c-1.4,0-2.5,0-3.9-0.1 c-0.5,0-1,0.4-1,1c0,6.8,0,22.1,0,26.2C24.8,45.3,25.2,45.7,25.8,45.7z"></path> <path class="st0" d="M48.5,36.8c-3-6.2-6.1-12.3-9.1-18.5c-0.2-0.3-0.5-0.5-0.9-0.5c-1.6,0-2.7,0-4,0c-0.7,0-1.2,0.7-0.9,1.4 c4.3,8.6,8.7,17.1,13,25.7c0.2,0.3,0.5,0.5,0.8,0.5c1.4,0,2.3,0,3.8,0c0.4,0,0.7-0.2,0.9-0.5c4.2-8.6,8.4-17.2,12.6-25.9 c0.3-0.6-0.2-1.4-0.9-1.4c-1.3,0-2.4,0-3.8,0.1c-0.4,0-0.7,0.2-0.9,0.5c-2.9,6.2-5.9,12.4-8.9,18.5C49.9,37.5,48.9,37.5,48.5,36.8z"></path> <path class="st0" d="M69.1,46.2c7.1,0.5,14.3,1.1,21.4,1.8c0.6,0.1,1.1-0.4,1.1-0.9v-3.2c0-0.5-0.4-0.9-0.9-1 c-5.2-0.4-10.4-0.8-15.6-1.1c-0.5,0-0.9-0.4-0.9-0.9v-5.6c0-0.5,0.4-1,1-1c4.2,0.1,8.3,0.3,12.5,0.5c0.5,0,1-0.4,1-1v-2.9 c0-0.5-0.4-0.9-0.9-1c-4.2-0.1-8.4-0.2-12.6-0.3c-0.5,0-0.9-0.4-0.9-1v-5.6c0-0.5,0.4-0.9,0.9-1c5,0,10.4-0.1,15.4-0.2 c0.5,0,0.9-0.4,0.9-1v-3.1c0-0.5-0.4-1-1-1c-7,0.2-14.4,0.4-21.4,0.6c-0.5,0-0.9,0.4-0.9,1v26.7C68.2,45.7,68.6,46.2,69.1,46.2z"></path> </svg> 