<?xml version="1.0" encoding="UTF-8"?> <svg xmlns="http://www.w3.org/2000/svg" height="512" width="512" data-name="Layer 1"><rect id="backgroundrect" width="100%" height="100%" x="0" y="0" fill="none" stroke="none"></rect><g class="currentLayer" style=""><title>Layer 1</title><path d="m325.168 388.757a149.984 149.984 0 0 1 -69.168 16.943c-82.55 0-149.713-67.152-149.713-149.705s67.168-149.695 149.713-149.695a149.877 149.877 0 0 1 95.668 34.549 30.138 30.138 0 0 1 10.847 23.164v175.034c9.3 13.066 26.124 30.238 42.118 29.76 11.777-.353 20.076-12.861 24.937-22.14a196.206 196.206 0 0 0 22.209-90.667c0-107.927-87.857-195.763-195.779-195.763s-195.78 87.835-195.78 195.763 87.857 195.764 195.78 195.764a195.9 195.9 0 0 0 59.2-9.094 30.114 30.114 0 0 1 18.159 57.43 255.849 255.849 0 1 1 149.573-125.48c-15.77 30.124-41.123 53.322-76.457 54.4-31.8.971-60.528-17.1-81.307-40.261zm-22.868-56.19v-153.129a89.466 89.466 0 1 0 0 153.129z" fill-rule="evenodd" id="svg_1" class="" fill="#ffffff" fill-opacity="1"></path></g></svg> 