<?xml version="1.0" encoding="UTF-8"?> <svg xmlns="http://www.w3.org/2000/svg" data-name="Layer 1" width="32" height="32" style=""><rect id="backgroundrect" width="100%" height="100%" x="0" y="0" fill="none" stroke="none"></rect><g class="currentLayer" style=""><title>Layer 1</title><path d="M28,5H4A3.0033,3.0033,0,0,0,1,8V26a3.0033,3.0033,0,0,0,3,3H28a3.0033,3.0033,0,0,0,3-3V8A3.0033,3.0033,0,0,0,28,5Zm1,20.5859L22.207,18.793a1,1,0,0,0-1.414,1.414L27.5859,27H4.4141l6.7929-6.793a1,1,0,0,0-1.414-1.414L3,25.5859V10.9432l11.2559,8.04a3.0468,3.0468,0,0,0,3.4878,0L29,10.9433ZM4,7H28a1.0013,1.0013,0,0,1,1,1v.4853L16.5811,17.356a1,1,0,0,1-1.1626-.0005L3,8.4853V8A1.0013,1.0013,0,0,1,4,7Z" id="svg_1" class="selected" fill-opacity="1" fill="#494949"></path></g></svg> 