<?xml version="1.0" encoding="UTF-8"?> <svg xmlns="http://www.w3.org/2000/svg" height="512" width="512" data-name="Layer 1" style=""><rect id="backgroundrect" width="100%" height="100%" x="0" y="0" fill="none" stroke="none"></rect><g class="currentLayer" style=""><title>Layer 1</title><path d="m495.476 377.833-80.742-46.615a33.031 33.031 0 0 0 -45 12.07l-3.19 5.514a54.53 54.53 0 0 1 -79.946 16.34 700.831 700.831 0 0 1 -74.691-65.027 701.676 701.676 0 0 1 -65.025-74.694 54.538 54.538 0 0 1 16.347-79.96l5.515-3.185a33.022 33.022 0 0 0 12.056-44.992l-46.621-80.742a32.672 32.672 0 0 0 -40.511-14.211l-.991.393c-15.338 6.076-60.292 22.684-71.445 33.838a64.6 64.6 0 0 0 -5.2 5.869c-27.888 35.637-13.9 93.541.825 131.54 27.115 69.961 78.528 137.26 131.229 189.961s120 104.119 189.956 131.229c24.258 9.398 51.567 16.839 77.748 16.839 21.922 0 43.781-5.322 59.676-21.212 11.3-11.291 27.742-55.911 33.805-71.382l.392-1a32.7 32.7 0 0 0 -14.187-40.573z" fill-rule="evenodd" id="svg_1" class="selected" fill="#ffffff" fill-opacity="1"></path></g></svg> 