<?xml version="1.0" encoding="UTF-8"?> <svg xmlns="http://www.w3.org/2000/svg" height="32" width="32" data-name="Layer 1"><rect id="backgroundrect" width="100%" height="100%" x="0" y="0" fill="none" stroke="none"></rect><g class="currentLayer" style=""><title>Layer 1</title><path d="m4.5389 17.2543a61.9244 61.9244 0 0 0 12.8873 12.2086 8.46 8.46 0 0 0 10.1329-.4009l2.2324-1.89a3.4874 3.4874 0 0 0 -.0732-5.2715l-4.3951-3.5166c-1.86-1.4379-4.1178-.6741-5.3373 1.1788a1.444 1.444 0 0 1 -2.0435.1439 58.7467 58.7467 0 0 1 -5.6494-5.6494 1.4477 1.4477 0 0 1 .144-2.0434l.6973-.58a3.4312 3.4312 0 0 0 .4814-4.7569l-3.5166-4.3952a3.4639 3.4639 0 0 0 -5.2715-.0732l-1.8896 2.2329c-3.5225 4.2752-1.798 9.0765 1.6009 12.8129zm-.0736-11.5214 1.8887-2.2324a1.4338 1.4338 0 0 1 2.1836.03l3.5166 4.396a1.421 1.421 0 0 1 -.1992 1.97l-.6973.58a3.51 3.51 0 0 0 -.3725 4.8951 60.8651 60.8651 0 0 0 5.8427 5.8427 3.4645 3.4645 0 0 0 4.895-.3725l.58-.6973a1.4225 1.4225 0 0 1 1.9707-.1992l4.3955 3.5166a1.4291 1.4291 0 0 1 .03 2.1836l-2.2319 1.8887a6.2906 6.2906 0 0 1 -7.6885.2939 59.95 59.95 0 0 1 -14.4078-14.4081 6.2921 6.2921 0 0 1 .2944-7.6871z" id="svg_1" class="selected" fill-opacity="1" fill="#494949"></path></g></svg> 