<?xml version="1.0" encoding="UTF-8"?> <svg xmlns="http://www.w3.org/2000/svg" height="512" width="512" data-name="Layer 1" style=""><rect id="backgroundrect" width="100%" height="100%" x="0" y="0" fill="none" stroke="none"></rect><g class="currentLayer" style=""><title>Layer 1</title><path d="m256 445.819c-25.673-32.23-63.371-80.634-95.965-130.449-55.417-84.726-67.04-129.624-67.04-152.365 0-89.878 73.113-163 163-163s162.999 73.122 162.999 163c0 74.624-110.076 216.561-163 282.814zm125.57 17.349c-33.3 10.5-77.89 16.291-125.565 16.291s-92.261-5.786-125.566-16.291c-34.824-10.982-42.667-22.474-42.667-25.626 0-7.479 26.97-27 92.452-36.635q-10.827-14.594-21.324-29.416c-21.866 4.086-41.162 9.551-56.963 16.2-38.6 16.249-46.707 36.068-46.707 49.847 0 16.433 11.359 39.608 65.419 56.663 36.388 11.473 84.457 17.799 135.351 17.799s98.968-6.326 135.361-17.8c54.069-17.055 65.414-40.23 65.414-56.663 0-13.768-8.1-33.6-46.7-49.847-15.716-6.614-34.894-12.057-56.623-16.141-7.183 10.11-14.373 19.946-21.422 29.393 65.306 9.646 92.2 29.131 92.2 36.595 0 3.152-7.843 14.644-42.673 25.626zm-24.3-300.163a101.283 101.283 0 1 0 -101.285 101.284 101.413 101.413 0 0 0 101.285-101.284z" fill-rule="evenodd" id="svg_1" class="selected" fill="#ffffff" fill-opacity="1"></path></g></svg> 