<?xml version="1.0" encoding="UTF-8"?> <svg xmlns="http://www.w3.org/2000/svg" height="64" width="64"><rect id="backgroundrect" width="100%" height="100%" x="0" y="0" fill="none" stroke="none"></rect><g class="currentLayer" style=""><title>Layer 1</title><g id="icon" class="" fill-opacity="1" fill="#033131"><path d="m15.56 9.77v14.29a4 4 0 0 1 -4 4l.8 24.61a2.39 2.39 0 1 1 -4.77 0l.83-24.67a4 4 0 0 1 -4-4v-14.23a.79.79 0 0 1 .82-.77.79.79 0 0 1 .8.79v11.1a.79.79 0 0 0 .79.79.79.79 0 0 0 .79-.79v-11.12a.79.79 0 0 1 .8-.77.79.79 0 0 1 .79.79v11.1a.8.8 0 0 0 .8.79.8.8 0 0 0 .79-.79v-11.12a.79.79 0 0 1 .79-.77.79.79 0 0 1 .8.79v11.1a.79.79 0 0 0 .79.79.79.79 0 0 0 .79-.79v-11.12a.79.79 0 0 1 .8-.79.79.79 0 0 1 .79.79zm45.44 10.32c0-5.26-2.76-11.09-7.14-11.09s-7.15 5.85-7.15 11.11c0 4.6 2.11 7.22 5.56 7.81v.08l-.8 24.61a2.39 2.39 0 1 0 4.77 0l-.8-24.61v-.1c3.46-.59 5.56-3.21 5.56-7.81zm-29.07 3.41a8.5 8.5 0 1 0 8.5 8.5 8.51 8.51 0 0 0 -8.5-8.5zm15 8.5a15 15 0 1 1 -15-15 15 15 0 0 1 15 15zm-5.5 0a9.5 9.5 0 1 0 -9.5 9.5 9.51 9.51 0 0 0 9.5-9.5z" id="svg_1" fill="#033131"></path></g></g></svg> 