<?xml version="1.0" encoding="UTF-8"?> <svg xmlns="http://www.w3.org/2000/svg" height="25" width="25"><rect id="backgroundrect" width="100%" height="100%" x="0" y="0" fill="none" stroke="none"></rect><g class="currentLayer" style=""><title>Layer 1</title><g id="Time" class="" fill-opacity="1" fill="#494949"><path d="m12.5 0a12.5 12.5 0 1 0 12.5 12.5 12.51408 12.51408 0 0 0 -12.5-12.5zm0 24a11.5 11.5 0 1 1 11.5-11.5 11.51278 11.51278 0 0 1 -11.5 11.5z" id="svg_1" fill="#494949"></path><path d="m13 12.293v-6.793a.5.5 0 0 0 -1 0v7a.49965.49965 0 0 0 .14648.35352l4 4a.5.5 0 0 0 .707-.707z" id="svg_2" fill="#494949"></path></g></g></svg> 