<?xml version="1.0" encoding="UTF-8"?> <svg xmlns="http://www.w3.org/2000/svg" xmlns:xlink="http://www.w3.org/1999/xlink" version="1.1" style="enable-background:new 0 0 512.024 512.024;" xml:space="preserve" width="512.024" height="512.024"><rect id="backgroundrect" width="100%" height="100%" x="0" y="0" fill="none" stroke="none"></rect> <g class="currentLayer" style=""><title>Layer 1</title><g id="svg_1" class="selected" fill-opacity="1" fill="#494949"> <path d="M357.802,392.31c-28.225,21.688-63.524,34.603-101.789,34.603s-73.564-12.915-101.789-34.603v119.714h203.578V392.31z" id="svg_2" fill="#494949"></path> <path d="M392.154,372.405h-4.353v139.619h124.223v-19.749C512.024,426.179,458.251,372.405,392.154,372.405z" id="svg_3" fill="#494949"></path> <path d="M124.223,372.405h-4.353C53.774,372.405,0,426.179,0,492.275v19.749h124.223V372.405z" id="svg_4" fill="#494949"></path> <path d="M316.03,31.827v108.567h76.545c-2.629-24.412-11.658-47.44-26.545-67.304C352.911,55.585,335.58,41.382,316.03,31.827z" id="svg_5" fill="#494949"></path> <path d="M145.994,73.092c-14.887,19.865-23.916,42.891-26.544,67.303h76.546V31.827C176.444,41.382,159.113,55.586,145.994,73.092z " id="svg_6" fill="#494949"></path> <path d="M256.012,396.913c75.756,0,137.388-61.632,137.388-137.388V237.92H118.625v21.605 C118.625,335.281,180.257,396.913,256.012,396.913z" id="svg_7" fill="#494949"></path> <rect x="225.9949951171875" width="60.03499984741211" height="140.39500427246094" id="svg_8" fill="#494949"></rect> <rect x="84.86199951171875" y="170.39500427246094" width="342.3009948730469" height="37.5260009765625" id="svg_9" fill="#494949"></rect> </g></g></svg> 